<svg xmlns="http://www.w3.org/2000/svg" xmlns:svg="http://www.w3.org/2000/svg" xmlns:xlink="http://www.w3.org/1999/xlink" id="svg3408" width="128" height="128" version="1.0"><defs id="defs3410"><linearGradient id="linearGradient3220"><stop style="stop-color:#fff;stop-opacity:1" id="stop3222" offset="0"/><stop style="stop-color:#fff;stop-opacity:0" id="stop3224" offset="1"/></linearGradient><linearGradient id="linearGradient3201"><stop id="stop3203" offset="0" style="stop-color:#fbaeff;stop-opacity:1"/><stop id="stop3205" offset="1" style="stop-color:#ffd7d7;stop-opacity:1"/></linearGradient><linearGradient id="linearGradient3195"><stop id="stop3197" offset="0" style="stop-color:#99c2fc;stop-opacity:1"/><stop id="stop3199" offset="1" style="stop-color:#dceafe;stop-opacity:1"/></linearGradient><linearGradient id="linearGradient6310"><stop style="stop-color:#b900c4;stop-opacity:1" id="stop6312" offset="0"/><stop style="stop-color:#ae4300;stop-opacity:1" id="stop6314" offset="1"/></linearGradient><linearGradient id="linearGradient3051"><stop style="stop-color:#0968ef;stop-opacity:1" id="stop3053" offset="0"/><stop style="stop-color:#aecffc;stop-opacity:1" id="stop3055" offset="1"/></linearGradient><linearGradient id="linearGradient3768" x1="23.5" x2="140.198" y1="64" y2="32.731" gradientTransform="translate(-4,0)" gradientUnits="userSpaceOnUse" xlink:href="#linearGradient3051"/><linearGradient id="linearGradient3772" x1="32" x2="54.052" y1="88.469" y2="6.171" gradientTransform="translate(-4,0)" gradientUnits="userSpaceOnUse" xlink:href="#linearGradient6310"/><linearGradient id="linearGradient3226" x1="92.705" x2="120" y1="8.803" y2="76" gradientTransform="translate(-4,0)" gradientUnits="userSpaceOnUse" xlink:href="#linearGradient3220"/></defs><metadata id="metadata3413"/><g id="layer1"><path style="opacity:.61386138;fill:#797979;fill-opacity:1;stroke:none" id="path3452" d="m 4,120 0,4 116,0 0,-4 -116,0 z"/><rect id="rect3572" width="8" height="4" x="4" y="36" rx="0" ry="0" style="opacity:1;fill:#787878;fill-opacity:.61568627;stroke:none;stroke-width:1;stroke-linecap:round;stroke-linejoin:round;stroke-miterlimit:4;stroke-dasharray:none;stroke-dashoffset:0;stroke-opacity:1"/><rect id="rect3574" width="8" height="4" x="-124" y="92" rx="0" ry="0" transform="matrix(0,-1,1,0,0,0)" style="opacity:1;fill:#787878;fill-opacity:.61568627;stroke:none;stroke-width:1;stroke-linecap:round;stroke-linejoin:round;stroke-miterlimit:4;stroke-dasharray:none;stroke-dashoffset:0;stroke-opacity:1"/><rect style="opacity:1;fill:#787878;fill-opacity:.61568627;stroke:none;stroke-width:1;stroke-linecap:round;stroke-linejoin:round;stroke-miterlimit:4;stroke-dasharray:none;stroke-dashoffset:0;stroke-opacity:1" id="rect3576" width="8" height="4" x="-124" y="72" rx="0" ry="0" transform="matrix(0,-1,1,0,0,0)"/><rect id="rect3578" width="8" height="4" x="-124" y="52" rx="0" ry="0" transform="matrix(0,-1,1,0,0,0)" style="opacity:1;fill:#787878;fill-opacity:.61568627;stroke:none;stroke-width:1;stroke-linecap:round;stroke-linejoin:round;stroke-miterlimit:4;stroke-dasharray:none;stroke-dashoffset:0;stroke-opacity:1"/><rect style="opacity:1;fill:#787878;fill-opacity:.61568627;stroke:none;stroke-width:1;stroke-linecap:round;stroke-linejoin:round;stroke-miterlimit:4;stroke-dasharray:none;stroke-dashoffset:0;stroke-opacity:1" id="rect3580" width="8" height="4" x="-124" y="32" rx="0" ry="0" transform="matrix(0,-1,1,0,0,0)"/><path style="opacity:.61386138;fill:#797979;fill-opacity:1;stroke:none" id="path3447" d="M 4,12 4,124 8,124 8,12 4,12 z"/><rect style="opacity:1;fill:#787878;fill-opacity:.61568627;stroke:none;stroke-width:1;stroke-linecap:round;stroke-linejoin:round;stroke-miterlimit:4;stroke-dasharray:none;stroke-dashoffset:0;stroke-opacity:1" id="rect3564" width="8" height="4" x="4" y="96" rx="0" ry="0"/><rect id="rect3566" width="8" height="4" x="4" y="76" rx="0" ry="0" style="opacity:1;fill:#787878;fill-opacity:.61568627;stroke:none;stroke-width:1;stroke-linecap:round;stroke-linejoin:round;stroke-miterlimit:4;stroke-dasharray:none;stroke-dashoffset:0;stroke-opacity:1"/><rect style="opacity:1;fill:#787878;fill-opacity:.61568627;stroke:none;stroke-width:1;stroke-linecap:round;stroke-linejoin:round;stroke-miterlimit:4;stroke-dasharray:none;stroke-dashoffset:0;stroke-opacity:1" id="rect3568" width="8" height="4" x="4" y="56" rx="0" ry="0"/><path style="opacity:1;fill:url(#linearGradient3226);fill-opacity:1;fill-rule:evenodd;stroke:none;stroke-width:1px;stroke-linecap:butt;stroke-linejoin:miter;stroke-opacity:1" id="path3210" d="M 100,24 L 76.25,40 L 52,76 L 53.8125,76.5 C 75.394977,70.716993 92.371686,59.428947 100,48 L 100,24 z"/><path id="path3770" d="M 20,88 L 52,80 L 76,40 L 100,24" style="fill:none;fill-opacity:1;fill-rule:evenodd;stroke:url(#linearGradient3772);stroke-width:4;stroke-linecap:round;stroke-linejoin:round;stroke-miterlimit:4;stroke-dasharray:none;stroke-opacity:1"/><path style="fill:none;fill-opacity:1;fill-rule:evenodd;stroke:url(#linearGradient3768);stroke-width:4;stroke-linecap:round;stroke-linejoin:round;stroke-miterlimit:4;stroke-dasharray:none;stroke-opacity:1" id="path2982" d="M 20,104 L 52,96 L 76,72 L 100,64"/><path style="opacity:.61386138;fill:#797979;fill-opacity:1;stroke:none" id="path3447-7" d="m 116,12 0,112 4,0 0,-112 -4,0 z"/><path style="opacity:.61386138;fill:#797979;fill-opacity:1;stroke:none" id="path3452-7" d="m 4,12 0,4 116,0 0,-4 -116,0 z"/><rect id="rect3572-4" width="8" height="4" x="108" y="36" rx="0" ry="0" style="fill:#787878;fill-opacity:.61568627;stroke:none"/><rect style="fill:#787878;fill-opacity:.61568627;stroke:none" id="rect3564-1" width="8" height="4" x="108" y="96" rx="0" ry="0"/><rect id="rect3566-0" width="8" height="4" x="108" y="76" rx="0" ry="0" style="fill:#787878;fill-opacity:.61568627;stroke:none"/><rect style="fill:#787878;fill-opacity:.61568627;stroke:none" id="rect3568-8" width="8" height="4" x="108" y="56" rx="0" ry="0"/><rect id="rect3574-0" width="8" height="4" x="-20" y="92" rx="0" ry="0" transform="matrix(0,-1,1,0,0,0)" style="fill:#787878;fill-opacity:.61568627;stroke:none"/><rect style="fill:#787878;fill-opacity:.61568627;stroke:none" id="rect3576-5" width="8" height="4" x="-20" y="72" rx="0" ry="0" transform="matrix(0,-1,1,0,0,0)"/><rect id="rect3578-4" width="8" height="4" x="-20" y="52" rx="0" ry="0" transform="matrix(0,-1,1,0,0,0)" style="fill:#787878;fill-opacity:.61568627;stroke:none"/><rect style="fill:#787878;fill-opacity:.61568627;stroke:none" id="rect3580-3" width="8" height="4" x="-20" y="32" rx="0" ry="0" transform="matrix(0,-1,1,0,0,0)"/></g></svg>