<svg xmlns="http://www.w3.org/2000/svg" xmlns:svg="http://www.w3.org/2000/svg" xmlns:xlink="http://www.w3.org/1999/xlink" id="svg3408" width="128" height="128" version="1.0"><defs id="defs3410"><linearGradient id="linearGradient3201"><stop id="stop3203" offset="0" style="stop-color:#fbaeff;stop-opacity:1"/><stop id="stop3205" offset="1" style="stop-color:#ffd7d7;stop-opacity:1"/></linearGradient><linearGradient id="linearGradient3195"><stop id="stop3197" offset="0" style="stop-color:#99c2fc;stop-opacity:1"/><stop id="stop3199" offset="1" style="stop-color:#dceafe;stop-opacity:1"/></linearGradient><linearGradient id="linearGradient6310"><stop style="stop-color:#b900c4;stop-opacity:1" id="stop6312" offset="0"/><stop style="stop-color:#ae4300;stop-opacity:1" id="stop6314" offset="1"/></linearGradient><linearGradient id="linearGradient3051"><stop style="stop-color:#0968ef;stop-opacity:1" id="stop3053" offset="0"/><stop style="stop-color:#aecffc;stop-opacity:1" id="stop3055" offset="1"/></linearGradient><linearGradient id="linearGradient3768" x1="23.5" x2="140.198" y1="64" y2="32.731" gradientTransform="translate(-4,0)" gradientUnits="userSpaceOnUse" xlink:href="#linearGradient3051"/><linearGradient id="linearGradient3772" x1="32" x2="54.052" y1="88.469" y2="6.171" gradientTransform="translate(-4,0)" gradientUnits="userSpaceOnUse" xlink:href="#linearGradient6310"/></defs><metadata id="metadata3413"/><g id="layer1"><g id="g3064" transform="translate(0,-58)"><path style="opacity:.61386138;fill:#797979;fill-opacity:1;stroke:none" id="path3452" d="m 120.00001,122 -4.14286,-2 -8.28571,-4 0,4 L 4,120 l 0,4 103.57144,0 0,4 8.28571,-4 4.14286,-2 z"/><rect style="fill:#787878;fill-opacity:.61568627;stroke:none" id="rect3574" width="8" height="4" x="-126" y="92" rx="0" ry="0" transform="matrix(0,-1,1,0,0,0)"/><rect id="rect3576" width="8" height="4" x="-126" y="72" rx="0" ry="0" transform="matrix(0,-1,1,0,0,0)" style="fill:#787878;fill-opacity:.61568627;stroke:none"/><rect style="fill:#787878;fill-opacity:.61568627;stroke:none" id="rect3578" width="8" height="4" x="-126" y="52" rx="0" ry="0" transform="matrix(0,-1,1,0,0,0)"/><rect id="rect3580" width="8" height="4" x="-126" y="32" rx="0" ry="0" transform="matrix(0,-1,1,0,0,0)" style="fill:#787878;fill-opacity:.61568627;stroke:none"/></g><g id="g3071" transform="translate(58,0)"><rect style="fill:#787878;fill-opacity:.61568627;stroke:none" id="rect3572" width="8" height="4" x="2" y="36" rx="0" ry="0"/><path id="path3447" d="m 6,8 -2,4.296296 -4,8.592593 4,0 L 4,124 l 4,0 0,-103.111111 4,0 L 8,12.296296 6,8 z" style="opacity:.61386138;fill:#797979;fill-opacity:1;stroke:none"/><rect id="rect3564" width="8" height="4" x="2" y="96" rx="0" ry="0" style="fill:#787878;fill-opacity:.61568627;stroke:none"/><rect style="fill:#787878;fill-opacity:.61568627;stroke:none" id="rect3566" width="8" height="4" x="2" y="76" rx="0" ry="0"/><rect id="rect3568" width="8" height="4" x="2" y="56" rx="0" ry="0" style="fill:#787878;fill-opacity:.61568627;stroke:none"/></g><path style="fill:none;stroke:url(#linearGradient3768);stroke-width:6;stroke-linecap:round;stroke-linejoin:round;stroke-miterlimit:4;stroke-opacity:1;stroke-dasharray:none" id="path2982" d="M 4,108 49.87868,100 84,68 113.625,56"/></g></svg>