<svg xmlns="http://www.w3.org/2000/svg" xmlns:svg="http://www.w3.org/2000/svg" xmlns:xlink="http://www.w3.org/1999/xlink" id="svg3408" width="128" height="128" version="1.0"><defs id="defs3410"><linearGradient id="linearGradient3220"><stop style="stop-color:#fff;stop-opacity:1" id="stop3222" offset="0"/><stop style="stop-color:#fff;stop-opacity:0" id="stop3224" offset="1"/></linearGradient><linearGradient id="linearGradient3201"><stop id="stop3203" offset="0" style="stop-color:#fbaeff;stop-opacity:1"/><stop id="stop3205" offset="1" style="stop-color:#ffd7d7;stop-opacity:1"/></linearGradient><linearGradient id="linearGradient3195"><stop id="stop3197" offset="0" style="stop-color:#99c2fc;stop-opacity:1"/><stop id="stop3199" offset="1" style="stop-color:#dceafe;stop-opacity:1"/></linearGradient><linearGradient id="linearGradient6310"><stop style="stop-color:#b900c4;stop-opacity:1" id="stop6312" offset="0"/><stop style="stop-color:#ae4300;stop-opacity:1" id="stop6314" offset="1"/></linearGradient><linearGradient id="linearGradient3051"><stop style="stop-color:#0968ef;stop-opacity:1" id="stop3053" offset="0"/><stop style="stop-color:#aecffc;stop-opacity:1" id="stop3055" offset="1"/></linearGradient><linearGradient id="linearGradient3226" x1="92.705" x2="120" y1="8.803" y2="76" gradientTransform="translate(-4,0)" gradientUnits="userSpaceOnUse" xlink:href="#linearGradient3220"/></defs><metadata id="metadata3413"/><g id="layer1"><path id="path3452" d="m 120,122 -4.14286,-2 -8.28571,-4 0,4 L 4,120 l 0,4 103.57143,0 0,4 8.28571,-4 L 120,122 z" style="opacity:.61386138;fill:#797979;fill-opacity:1;stroke:none"/><path id="path3452-1" d="m 8,8 c 8,16 0,0 8,16 l -4,0 0,100 -8,0 L 4,24 0,24 C 8,8 0,24 8,8 z" style="opacity:.61386138;fill:#797979;fill-opacity:1;stroke:none"/><rect id="rect3574" width="12" height="8" x="12" y="-44" rx="0" ry="0" transform="scale(1,-1)" style="fill:#787878;fill-opacity:.61568627;stroke:none"/><rect style="fill:#787878;fill-opacity:.61568627;stroke:none" id="rect3576" width="12" height="8" x="12" y="-64" rx="0" ry="0" transform="scale(1,-1)"/><rect id="rect3578" width="12" height="8" x="12" y="-84" rx="0" ry="0" transform="scale(1,-1)" style="fill:#787878;fill-opacity:.61568627;stroke:none"/><rect style="fill:#787878;fill-opacity:.61568627;stroke:none" id="rect3580" width="12" height="8" x="12" y="-104" rx="0" ry="0" transform="scale(1,-1)"/></g></svg>