<svg xmlns="http://www.w3.org/2000/svg" xmlns:svg="http://www.w3.org/2000/svg" xmlns:xlink="http://www.w3.org/1999/xlink" id="svg3408" width="128" height="128" version="1.0"><defs id="defs3410"><linearGradient id="linearGradient3201"><stop id="stop3203" offset="0" style="stop-color:#fbaeff;stop-opacity:1"/><stop id="stop3205" offset="1" style="stop-color:#ffd7d7;stop-opacity:1"/></linearGradient><linearGradient id="linearGradient3195"><stop id="stop3197" offset="0" style="stop-color:#99c2fc;stop-opacity:1"/><stop id="stop3199" offset="1" style="stop-color:#dceafe;stop-opacity:1"/></linearGradient><linearGradient id="linearGradient6310"><stop style="stop-color:#b900c4;stop-opacity:1" id="stop6312" offset="0"/><stop style="stop-color:#ae4300;stop-opacity:1" id="stop6314" offset="1"/></linearGradient><linearGradient id="linearGradient3051"><stop style="stop-color:#0968ef;stop-opacity:1" id="stop3053" offset="0"/><stop style="stop-color:#aecffc;stop-opacity:1" id="stop3055" offset="1"/></linearGradient><linearGradient id="linearGradient3768" x1="23.5" x2="140.198" y1="64" y2="32.731" gradientTransform="translate(-4,0)" gradientUnits="userSpaceOnUse" xlink:href="#linearGradient3051"/><linearGradient id="linearGradient3772" x1="32" x2="54.052" y1="88.469" y2="6.171" gradientTransform="translate(280.41421,13.75)" gradientUnits="userSpaceOnUse" xlink:href="#linearGradient6310"/><filter id="filter5948" width="1.073" height="5.006" x="-.037" y="-2.003" color-interpolation-filters="sRGB"><feGaussianBlur id="feGaussianBlur5950" stdDeviation="1.303"/></filter><filter id="filter5969" width="1.096" height="1.292" x="-.048" y="-.146" color-interpolation-filters="sRGB"><feGaussianBlur id="feGaussianBlur5971" stdDeviation="1.486"/></filter><filter id="filter5973" color-interpolation-filters="sRGB"><feGaussianBlur id="feGaussianBlur5975" stdDeviation="1.831"/></filter><filter id="filter5961" width="1.096" height="1.287" x="-.048" y="-.144" color-interpolation-filters="sRGB"><feGaussianBlur id="feGaussianBlur5963" stdDeviation="1.494"/></filter><linearGradient id="linearGradient3844" x1="1.868" x2="85.657" y1="49.889" y2="49.889" gradientTransform="matrix(1.361399,0,0,1.8559407,2.9903535,-53.698278)" gradientUnits="userSpaceOnUse" xlink:href="#linearGradient6310"/><linearGradient id="linearGradient3844-1" x1="1.868" x2="85.657" y1="49.889" y2="49.889" gradientTransform="matrix(1.3946161,0,0,1.8533399,0.21086214,-53.568528)" gradientUnits="userSpaceOnUse" xlink:href="#linearGradient6310-6"/><linearGradient id="linearGradient6310-6"><stop style="stop-color:#b900c4;stop-opacity:1" id="stop6312-8" offset="0"/><stop style="stop-color:#ae4300;stop-opacity:1" id="stop6314-8" offset="1"/></linearGradient><linearGradient id="linearGradient3861" x1="1.868" x2="85.657" y1="49.889" y2="49.889" gradientTransform="matrix(1.3824352,0,0,-1.8542896,1.230067,179.63952)" gradientUnits="userSpaceOnUse" xlink:href="#linearGradient6310-6"/><linearGradient id="linearGradient3768-7" x1="23.5" x2="140.198" y1="64" y2="32.731" gradientTransform="translate(-4,0)" gradientUnits="userSpaceOnUse" xlink:href="#linearGradient3051-1"/><linearGradient id="linearGradient3051-1"><stop style="stop-color:#0968ef;stop-opacity:1" id="stop3053-2" offset="0"/><stop style="stop-color:#aecffc;stop-opacity:1" id="stop3055-6" offset="1"/></linearGradient><linearGradient id="linearGradient4953" x1="23.5" x2="140.198" y1="64" y2="32.731" gradientTransform="translate(-8,-108)" gradientUnits="userSpaceOnUse" xlink:href="#linearGradient3051-1"/><linearGradient id="linearGradient3921" x1="14.793" x2="96.145" y1="62.236" y2="62.236" gradientTransform="matrix(1.3020547,0,0,1.7221588,-13.577402,-45.17981)" gradientUnits="userSpaceOnUse" xlink:href="#linearGradient3051-1"/></defs><metadata id="metadata3413"/><g id="layer1"><g id="g3064" transform="translate(4,-59.0625)"><path style="opacity:.61386138;fill:#797979;fill-opacity:1;stroke:none" id="path3452" d="m 124.00001,122 -4.14286,-2 -8.28571,-4 0,4 L 0,120 l 0,4 111.57144,0 0,4 8.28571,-4 z"/><rect style="fill:#787878;fill-opacity:.61568627;stroke:none" id="rect3574" width="8" height="4" x="-126" y="86" rx="0" ry="0" transform="matrix(0,-1,1,0,0,0)"/><rect id="rect3576" width="8" height="4" x="-126" y="66" rx="0" ry="0" transform="matrix(0,-1,1,0,0,0)" style="fill:#787878;fill-opacity:.61568627;stroke:none"/><rect style="fill:#787878;fill-opacity:.61568627;stroke:none" id="rect3578" width="8" height="4" x="-126" y="46" rx="0" ry="0" transform="matrix(0,-1,1,0,0,0)"/><rect id="rect3580" width="8" height="4" x="-126" y="26" rx="0" ry="0" transform="matrix(0,-1,1,0,0,0)" style="fill:#787878;fill-opacity:.61568627;stroke:none"/></g><g id="g3071"><rect style="fill:#787878;fill-opacity:.61568627;stroke:none" id="rect3572" width="8" height="4" x="2" y="28" rx="0" ry="0"/><path id="path3447" d="m 6,8 -2,4.296296 -4,8.592593 4,0 L 4,64 l 4,0 0,-43.111111 4,0 -4,-8.592593 z" style="opacity:.61386138;fill:#797979;fill-opacity:1;stroke:none"/><rect id="rect3564" width="8" height="4" x="2" y="96" rx="0" ry="0" style="fill:#787878;fill-opacity:.61568627;stroke:none"/><rect style="fill:#787878;fill-opacity:.61568627;stroke:none" id="rect3566" width="8" height="4" x="2" y="76" rx="0" ry="0"/><rect id="rect3568" width="8" height="4" x="2" y="48" rx="0" ry="0" style="fill:#787878;fill-opacity:.61568627;stroke:none"/><path id="path3447-6" d="m 6,124 -2,-4.2963 -4,-8.59259 4,0 L 4,64 l 4,0 0,47.11111 4,0 -4,8.59259 z" style="opacity:.61386138;fill:#797979;fill-opacity:1;stroke:none"/></g><rect id="rect3012-5" width="85.301" height="1.561" x="18.172" y="48.464" transform="matrix(1.0426509,0,0,1.0426509,-115.54871,-18.023131)" style="fill:#f2f2f2;fill-opacity:1;stroke:none;overflow:visible;filter:url(#filter5948)"/><path id="path4725-7" d="m 8.2875262,63.096006 c 3.0340178,-0.186117 6.1440568,-0.383105 7.9868318,-0.17126 2.875275,0.764802 6.002219,2.351589 8.597348,3.63829 2.59513,1.286706 3.74345,-11.820777 7.181182,-11.661096 3.437781,0.159483 5.670459,27.961356 8.754995,27.857674 3.084537,-0.103703 3.453102,-51.58312 7.181036,-51.897076 3.727959,-0.313957 2.532797,74.171262 7.644062,74.142562 5.111241,-0.0289 1.582727,-86.124456 7.924501,-86.010094 6.382279,0.115197 0.592392,78.459664 7.862846,78.512387 3.075379,0.02237 3.961752,-54.942164 8.597715,-54.88812 4.635987,0.05381 4.838185,30.528201 7.705396,30.616435 2.867139,0.08858 3.971981,-15.567713 6.026769,-15.575617 2.054838,-0.0057 7.396932,5.806961 8.755172,5.778488 1.35827,-0.0286 4.85569,-0.296215 6.49972,-0.24104" style="fill:none;stroke:url(#linearGradient3921);stroke-width:4;stroke-linecap:butt;stroke-linejoin:miter;stroke-miterlimit:4;stroke-opacity:1;stroke-dasharray:none;overflow:visible"/><path id="path3079-1" d="m 9.617787,63.057471 c 32.792872,0 38.507075,-48.197915 52.978428,-48.330466 14.471328,-0.132297 20.130442,48.330466 52.923345,48.330466" style="fill:none;stroke:url(#linearGradient3844);stroke-width:5.93227291;stroke-linecap:butt;stroke-linejoin:miter;stroke-miterlimit:4;stroke-opacity:1;stroke-dasharray:none;overflow:visible"/><path id="path3079-1-2" d="m 7.9599068,62.987635 c 33.2995832,0 39.1020822,48.155035 53.7970452,48.287465 14.694936,0.13218 20.441494,-48.287465 53.741108,-48.287465" style="fill:none;stroke:url(#linearGradient3861);stroke-width:5.97527027;stroke-linecap:butt;stroke-linejoin:miter;stroke-miterlimit:4;stroke-opacity:1;stroke-dasharray:none;overflow:visible"/></g></svg>