<svg xmlns="http://www.w3.org/2000/svg" xmlns:svg="http://www.w3.org/2000/svg" xmlns:xlink="http://www.w3.org/1999/xlink" id="svg3408" width="128" height="128" version="1.0"><defs id="defs3410"><linearGradient id="linearGradient3228"><stop style="stop-color:#fff;stop-opacity:1" id="stop3230" offset="0"/><stop style="stop-color:#fff;stop-opacity:0" id="stop3232" offset="1"/></linearGradient><linearGradient id="linearGradient3220"><stop style="stop-color:#fff;stop-opacity:1" id="stop3222" offset="0"/><stop style="stop-color:#fff;stop-opacity:0" id="stop3224" offset="1"/></linearGradient><linearGradient id="linearGradient3201"><stop id="stop3203" offset="0" style="stop-color:#fbaeff;stop-opacity:1"/><stop id="stop3205" offset="1" style="stop-color:#ffd7d7;stop-opacity:1"/></linearGradient><linearGradient id="linearGradient3195"><stop id="stop3197" offset="0" style="stop-color:#99c2fc;stop-opacity:1"/><stop id="stop3199" offset="1" style="stop-color:#dceafe;stop-opacity:1"/></linearGradient><linearGradient id="linearGradient6310"><stop style="stop-color:#b900c4;stop-opacity:1" id="stop6312" offset="0"/><stop style="stop-color:#ae4300;stop-opacity:1" id="stop6314" offset="1"/></linearGradient><linearGradient id="linearGradient3051"><stop style="stop-color:#0968ef;stop-opacity:1" id="stop3053" offset="0"/><stop style="stop-color:#aecffc;stop-opacity:1" id="stop3055" offset="1"/></linearGradient><linearGradient id="linearGradient3768" x1="23.5" x2="140.198" y1="64" y2="32.731" gradientTransform="translate(-4,0)" gradientUnits="userSpaceOnUse" xlink:href="#linearGradient3051"/><linearGradient id="linearGradient3772" x1="32" x2="54.052" y1="88.469" y2="6.171" gradientTransform="translate(-4,0)" gradientUnits="userSpaceOnUse" xlink:href="#linearGradient6310"/><linearGradient id="linearGradient3189" x1="66.066" x2="66.066" y1="92.046" y2="43.635" gradientTransform="translate(-4,0)" gradientUnits="userSpaceOnUse" xlink:href="#linearGradient3201"/><linearGradient id="linearGradient3193" x1="68" x2="68" y1="112" y2="80" gradientTransform="translate(-4,0)" gradientUnits="userSpaceOnUse" xlink:href="#linearGradient3195"/><linearGradient id="linearGradient3226" x1="92.705" x2="120" y1="8.803" y2="76" gradientTransform="translate(-4,0)" gradientUnits="userSpaceOnUse" xlink:href="#linearGradient3220"/><linearGradient id="linearGradient3234" x1="84" x2="110" y1="60" y2="105.033" gradientTransform="translate(-4,0)" gradientUnits="userSpaceOnUse" xlink:href="#linearGradient3228"/><linearGradient id="linearGradient3542" x1="151.137" x2="91.471" y1="57.515" y2="-2.151" gradientTransform="matrix(0.7071068,0.7071068,-0.7071068,0.7071068,45.79899,-39.539105)" gradientUnits="userSpaceOnUse" xlink:href="#linearGradient6310-6"/><linearGradient id="linearGradient6310-6"><stop style="stop-color:#b900c4;stop-opacity:1" id="stop6312-9" offset="0"/><stop style="stop-color:#ae4300;stop-opacity:1" id="stop6314-9" offset="1"/></linearGradient><linearGradient id="linearGradient3539" x1="84" x2="112" y1="56" y2="-12" gradientTransform="translate(-12,36)" gradientUnits="userSpaceOnUse" xlink:href="#linearGradient3643"/><linearGradient id="linearGradient3643"><stop style="stop-color:#0968ef;stop-opacity:1" id="stop3645" offset="0"/><stop style="stop-color:#aecffc;stop-opacity:1" id="stop3647" offset="1"/></linearGradient><linearGradient id="linearGradient3077" x1="84" x2="112" y1="56" y2="-12" gradientTransform="translate(-16,180)" gradientUnits="userSpaceOnUse" xlink:href="#linearGradient3643"/><linearGradient id="linearGradient3080" x1="151.137" x2="91.471" y1="57.515" y2="-2.151" gradientTransform="matrix(0.7071068,0.7071068,-0.7071068,0.7071068,41.79899,104.46089)" gradientUnits="userSpaceOnUse" xlink:href="#linearGradient6310-6"/><linearGradient id="linearGradient3077-8" x1="84" x2="112" y1="56" y2="-12" gradientTransform="translate(-16,180)" gradientUnits="userSpaceOnUse" xlink:href="#linearGradient3643-6"/><linearGradient id="linearGradient3643-6"><stop style="stop-color:#0968ef;stop-opacity:1" id="stop3645-3" offset="0"/><stop style="stop-color:#aecffc;stop-opacity:1" id="stop3647-5" offset="1"/></linearGradient><linearGradient id="linearGradient3098" x1="84" x2="112" y1="56" y2="-12" gradientTransform="translate(-16,40)" gradientUnits="userSpaceOnUse" xlink:href="#linearGradient3643-6"/><linearGradient id="linearGradient3077-1" x1="84" x2="112" y1="56" y2="-12" gradientTransform="translate(-16,180)" gradientUnits="userSpaceOnUse" xlink:href="#linearGradient3643-1"/><linearGradient id="linearGradient3643-1"><stop style="stop-color:#0968ef;stop-opacity:1" id="stop3645-0" offset="0"/><stop style="stop-color:#aecffc;stop-opacity:1" id="stop3647-56" offset="1"/></linearGradient><linearGradient id="linearGradient3135" x1="84" x2="112" y1="56" y2="-12" gradientTransform="translate(-16,40)" gradientUnits="userSpaceOnUse" xlink:href="#linearGradient3643-1"/><linearGradient id="linearGradient3077-82" x1="84" x2="112" y1="56" y2="-12" gradientTransform="translate(-16,180)" gradientUnits="userSpaceOnUse" xlink:href="#linearGradient3643-0"/><linearGradient id="linearGradient3643-0"><stop style="stop-color:#0968ef;stop-opacity:1" id="stop3645-6" offset="0"/><stop style="stop-color:#aecffc;stop-opacity:1" id="stop3647-2" offset="1"/></linearGradient><linearGradient id="linearGradient3172" x1="84" x2="112" y1="56" y2="-12" gradientTransform="translate(-16,40)" gradientUnits="userSpaceOnUse" xlink:href="#linearGradient3643-0"/><linearGradient id="linearGradient3196" x1="84" x2="112" y1="56" y2="-12" gradientTransform="translate(-16,40)" gradientUnits="userSpaceOnUse" xlink:href="#linearGradient3643-0"/><linearGradient id="linearGradient3080-4" x1="151.137" x2="91.471" y1="57.515" y2="-2.151" gradientTransform="matrix(0.7071068,0.7071068,-0.7071068,0.7071068,41.79899,104.46089)" gradientUnits="userSpaceOnUse" xlink:href="#linearGradient6310-6-0"/><linearGradient id="linearGradient6310-6-0"><stop style="stop-color:#b900c4;stop-opacity:1" id="stop6312-9-6" offset="0"/><stop style="stop-color:#ae4300;stop-opacity:1" id="stop6314-9-3" offset="1"/></linearGradient><linearGradient id="linearGradient3214" x1="151.137" x2="91.471" y1="57.515" y2="-2.151" gradientTransform="matrix(0.7071068,0.7071068,-0.7071068,0.7071068,41.79899,-35.53911)" gradientUnits="userSpaceOnUse" xlink:href="#linearGradient6310-6-0"/><linearGradient id="linearGradient3080-5" x1="151.137" x2="91.471" y1="57.515" y2="-2.151" gradientTransform="matrix(0.7071068,0.7071068,-0.7071068,0.7071068,41.79899,104.46089)" gradientUnits="userSpaceOnUse" xlink:href="#linearGradient6310-6-8"/><linearGradient id="linearGradient6310-6-8"><stop style="stop-color:#b900c4;stop-opacity:1" id="stop6312-9-3" offset="0"/><stop style="stop-color:#ae4300;stop-opacity:1" id="stop6314-9-6" offset="1"/></linearGradient><linearGradient id="linearGradient3251" x1="151.137" x2="91.471" y1="57.515" y2="-2.151" gradientTransform="matrix(0.7071068,0.7071068,-0.7071068,0.7071068,41.79899,-35.53911)" gradientUnits="userSpaceOnUse" xlink:href="#linearGradient6310-6-8"/><linearGradient id="linearGradient3080-3" x1="151.137" x2="91.471" y1="57.515" y2="-2.151" gradientTransform="matrix(0.7071068,0.7071068,-0.7071068,0.7071068,41.79899,104.46089)" gradientUnits="userSpaceOnUse" xlink:href="#linearGradient6310-6-7"/><linearGradient id="linearGradient6310-6-7"><stop style="stop-color:#b900c4;stop-opacity:1" id="stop6312-9-0" offset="0"/><stop style="stop-color:#ae4300;stop-opacity:1" id="stop6314-9-4" offset="1"/></linearGradient><linearGradient id="linearGradient3288" x1="151.137" x2="91.471" y1="57.515" y2="-2.151" gradientTransform="matrix(0.7071068,0.7071068,-0.7071068,0.7071068,41.79899,-35.53911)" gradientUnits="userSpaceOnUse" xlink:href="#linearGradient6310-6-7"/><linearGradient id="linearGradient3312" x1="151.137" x2="91.471" y1="57.515" y2="-2.151" gradientTransform="matrix(0.7071068,0.7071068,-0.7071068,0.7071068,41.79899,-35.53911)" gradientUnits="userSpaceOnUse" xlink:href="#linearGradient6310-6-7"/><linearGradient id="linearGradient3135-7" x1="84" x2="112" y1="56" y2="-12" gradientTransform="translate(-16,180)" gradientUnits="userSpaceOnUse" xlink:href="#linearGradient3643-1-2"/><linearGradient id="linearGradient3643-1-2"><stop style="stop-color:#0968ef;stop-opacity:1" id="stop3645-0-9" offset="0"/><stop style="stop-color:#aecffc;stop-opacity:1" id="stop3647-56-1" offset="1"/></linearGradient><linearGradient id="linearGradient3312-4" x1="151.137" x2="91.471" y1="57.515" y2="-2.151" gradientTransform="matrix(0.7071068,0.7071068,-0.7071068,0.7071068,41.79899,104.46089)" gradientUnits="userSpaceOnUse" xlink:href="#linearGradient6310-6-7-0"/><linearGradient id="linearGradient6310-6-7-0"><stop style="stop-color:#b900c4;stop-opacity:1" id="stop6312-9-0-6" offset="0"/><stop style="stop-color:#ae4300;stop-opacity:1" id="stop6314-9-4-2" offset="1"/></linearGradient><linearGradient id="linearGradient3214-1" x1="151.137" x2="91.471" y1="57.515" y2="-2.151" gradientTransform="matrix(0.7071068,0.7071068,-0.7071068,0.7071068,41.79899,104.46089)" gradientUnits="userSpaceOnUse" xlink:href="#linearGradient6310-6-0-5"/><linearGradient id="linearGradient6310-6-0-5"><stop style="stop-color:#b900c4;stop-opacity:1" id="stop6312-9-6-6" offset="0"/><stop style="stop-color:#ae4300;stop-opacity:1" id="stop6314-9-3-2" offset="1"/></linearGradient><linearGradient id="linearGradient3098-3" x1="84" x2="112" y1="56" y2="-12" gradientTransform="translate(-16,40)" gradientUnits="userSpaceOnUse" xlink:href="#linearGradient3643-6-8"/><linearGradient id="linearGradient3643-6-8"><stop style="stop-color:#0968ef;stop-opacity:1" id="stop3645-3-9" offset="0"/><stop style="stop-color:#aecffc;stop-opacity:1" id="stop3647-5-7" offset="1"/></linearGradient><linearGradient id="linearGradient3196-8" x1="84" x2="112" y1="56" y2="-12" gradientTransform="translate(-16,180)" gradientUnits="userSpaceOnUse" xlink:href="#linearGradient3643-0-7"/><linearGradient id="linearGradient3643-0-7"><stop style="stop-color:#0968ef;stop-opacity:1" id="stop3645-6-0" offset="0"/><stop style="stop-color:#aecffc;stop-opacity:1" id="stop3647-2-0" offset="1"/></linearGradient><linearGradient id="linearGradient3251-3" x1="151.137" x2="91.471" y1="57.515" y2="-2.151" gradientTransform="matrix(0.7071068,0.7071068,-0.7071068,0.7071068,41.79899,104.46089)" gradientUnits="userSpaceOnUse" xlink:href="#linearGradient6310-6-8-0"/><linearGradient id="linearGradient6310-6-8-0"><stop style="stop-color:#b900c4;stop-opacity:1" id="stop6312-9-3-5" offset="0"/><stop style="stop-color:#ae4300;stop-opacity:1" id="stop6314-9-6-1" offset="1"/></linearGradient><linearGradient id="linearGradient3355" x1="84" x2="112" y1="56" y2="-12" gradientTransform="translate(-16,180)" gradientUnits="userSpaceOnUse" xlink:href="#linearGradient3643-6-8"/></defs><metadata id="metadata3413"/><g id="layer1"><path id="path3452" d="m 120.00001,122 -4.14286,-2 -8.28571,-4 0,4 L 4,120 l 0,4 103.57144,0 0,4 8.28571,-4 4.14286,-2 z" style="opacity:.61386138;fill:#797979;fill-opacity:1;stroke:none"/><rect id="rect3572" width="8" height="4" x="4" y="36" rx="0" ry="0" style="opacity:1;fill:#787878;fill-opacity:.61568627;stroke:none;stroke-width:1;stroke-linecap:round;stroke-linejoin:round;stroke-miterlimit:4;stroke-dasharray:none;stroke-dashoffset:0;stroke-opacity:1"/><rect id="rect3574" width="8" height="4" x="-124" y="92" rx="0" ry="0" transform="matrix(0,-1,1,0,0,0)" style="opacity:1;fill:#787878;fill-opacity:.61568627;stroke:none;stroke-width:1;stroke-linecap:round;stroke-linejoin:round;stroke-miterlimit:4;stroke-dasharray:none;stroke-dashoffset:0;stroke-opacity:1"/><rect style="opacity:1;fill:#787878;fill-opacity:.61568627;stroke:none;stroke-width:1;stroke-linecap:round;stroke-linejoin:round;stroke-miterlimit:4;stroke-dasharray:none;stroke-dashoffset:0;stroke-opacity:1" id="rect3576" width="8" height="4" x="-124" y="72" rx="0" ry="0" transform="matrix(0,-1,1,0,0,0)"/><rect id="rect3578" width="8" height="4" x="-124" y="52" rx="0" ry="0" transform="matrix(0,-1,1,0,0,0)" style="opacity:1;fill:#787878;fill-opacity:.61568627;stroke:none;stroke-width:1;stroke-linecap:round;stroke-linejoin:round;stroke-miterlimit:4;stroke-dasharray:none;stroke-dashoffset:0;stroke-opacity:1"/><rect style="opacity:1;fill:#787878;fill-opacity:.61568627;stroke:none;stroke-width:1;stroke-linecap:round;stroke-linejoin:round;stroke-miterlimit:4;stroke-dasharray:none;stroke-dashoffset:0;stroke-opacity:1" id="rect3580" width="8" height="4" x="-124" y="32" rx="0" ry="0" transform="matrix(0,-1,1,0,0,0)"/><path style="opacity:.61386138;fill:#797979;fill-opacity:1;stroke:none" id="path3447" d="m 6,8 -2,4.296296 -4,8.592593 4,0 L 4,124 l 4,0 0,-103.111111 4,0 L 8,12.296296 6,8 z"/><rect style="opacity:1;fill:#787878;fill-opacity:.61568627;stroke:none;stroke-width:1;stroke-linecap:round;stroke-linejoin:round;stroke-miterlimit:4;stroke-dasharray:none;stroke-dashoffset:0;stroke-opacity:1" id="rect3564" width="8" height="4" x="4" y="96" rx="0" ry="0"/><rect id="rect3566" width="8" height="4" x="4" y="76" rx="0" ry="0" style="opacity:1;fill:#787878;fill-opacity:.61568627;stroke:none;stroke-width:1;stroke-linecap:round;stroke-linejoin:round;stroke-miterlimit:4;stroke-dasharray:none;stroke-dashoffset:0;stroke-opacity:1"/><rect style="opacity:1;fill:#787878;fill-opacity:.61568627;stroke:none;stroke-width:1;stroke-linecap:round;stroke-linejoin:round;stroke-miterlimit:4;stroke-dasharray:none;stroke-dashoffset:0;stroke-opacity:1" id="rect3568" width="8" height="4" x="4" y="56" rx="0" ry="0"/><path id="path3770" d="M 21.944544,37.972196 C 57.83226,53.965499 21.398003,37.915836 58.057165,54.009553 L 98,98" style="fill:none;stroke:url(#linearGradient3772);stroke-width:4;stroke-linecap:round;stroke-linejoin:round;stroke-miterlimit:4;stroke-opacity:1;stroke-dasharray:none"/><path style="fill:none;stroke:url(#linearGradient3768);stroke-width:4;stroke-linecap:round;stroke-linejoin:round;stroke-miterlimit:4;stroke-opacity:1;stroke-dasharray:none" id="path2982" d="M 21.944544,105.94454 58.187184,82.034641 58.145554,81.899495 97.87868,37.837049"/><path style="fill:url(#linearGradient3098);fill-opacity:1;stroke:none" id="path3491-2" d="M 20 97 L 20 104 L 13 104 L 13 108 L 20 108 L 20 115 L 24 115 L 24 108 L 31 108 L 31 104 L 24 104 L 24 97 L 20 97 z M 22 104 C 24 104 24 104 24 106 C 24 108 24 108 22 108 C 20 108 20 108 20 106 C 20 104 20 104 22 104 z"/><path style="fill:url(#linearGradient3135);fill-opacity:1;stroke:none" id="path3491-9" d="M 96 29 L 96 36 L 89 36 L 89 40 L 96 40 L 96 47 L 100 47 L 100 40 L 107 40 L 107 36 L 100 36 L 100 29 L 96 29 z M 98 36 C 100 36 100 36 100 38 C 100 40 100 40 98 40 C 96 40 96 40 96 38 C 96 36 96 36 98 36 z"/><path style="fill:url(#linearGradient3196);fill-opacity:1;stroke:none" id="path3491-5" d="M 56 73 L 56 80 L 49 80 L 49 84 L 56 84 L 56 91 L 60 91 L 60 84 L 67 84 L 67 80 L 60 80 L 60 73 L 56 73 z M 58 80 C 60 80 60 80 60 82 C 60 84 60 84 58 84 C 56 84 56 84 56 82 C 56 80 56 80 58 80 z"/><path style="fill:url(#linearGradient3214);fill-opacity:1;stroke:none" id="rect3454-2" d="M 17.0625 30.21875 L 14.21875 33.0625 L 19.15625 38 L 14.21875 42.9375 L 17.0625 45.78125 L 22 40.84375 L 26.9375 45.78125 L 29.78125 42.9375 L 24.84375 38 L 29.78125 33.0625 L 26.9375 30.21875 L 22 35.15625 L 17.0625 30.21875 z M 22 36 C 22.511238 36 23.014512 36.20201 23.40625 36.59375 C 24.189725 37.37723 24.189724 38.62277 23.40625 39.40625 C 22.622776 40.18972 21.377225 40.18972 20.59375 39.40625 C 19.810275 38.62277 19.810276 37.37722 20.59375 36.59375 C 20.985487 36.20201 21.488762 36 22 36 z"/><path style="fill:url(#linearGradient3251);fill-opacity:1;stroke:none" id="rect3454-7" d="M 93.0625 90.21875 L 90.21875 93.0625 L 95.15625 98 L 90.21875 102.9375 L 93.0625 105.78125 L 98 100.84375 L 102.9375 105.78125 L 105.78125 102.9375 L 100.84375 98 L 105.78125 93.0625 L 102.9375 90.21875 L 98 95.15625 L 93.0625 90.21875 z M 98 96 C 98.51124 96 99.01451 96.20201 99.40625 96.59375 C 100.18973 97.37723 100.18973 98.62277 99.40625 99.40625 C 98.62278 100.18972 97.37722 100.18972 96.59375 99.40625 C 95.810267 98.62277 95.81027 97.37722 96.59375 96.59375 C 96.98548 96.20201 97.48876 96 98 96 z"/><path style="fill:url(#linearGradient3312);fill-opacity:1;stroke:none" id="rect3454-77" d="M 53.0625 46.21875 L 50.21875 49.0625 L 55.15625 54 L 50.21875 58.9375 L 53.0625 61.78125 L 58 56.84375 L 62.9375 61.78125 L 65.78125 58.9375 L 60.84375 54 L 65.78125 49.0625 L 62.9375 46.21875 L 58 51.15625 L 53.0625 46.21875 z M 58 52 C 58.511238 52 59.014513 52.20201 59.40625 52.59375 C 60.189723 53.37723 60.189724 54.62277 59.40625 55.40625 C 58.622774 56.18972 57.377225 56.18972 56.59375 55.40625 C 55.810277 54.62277 55.810276 53.37722 56.59375 52.59375 C 56.985488 52.20201 57.488762 52 58 52 z"/></g></svg>