<svg xmlns="http://www.w3.org/2000/svg" xmlns:svg="http://www.w3.org/2000/svg" xmlns:xlink="http://www.w3.org/1999/xlink" id="svg3408" width="128" height="128" version="1.0"><defs id="defs3410"><linearGradient id="linearGradient3228"><stop style="stop-color:#fff;stop-opacity:1" id="stop3230" offset="0"/><stop style="stop-color:#fff;stop-opacity:0" id="stop3232" offset="1"/></linearGradient><linearGradient id="linearGradient3220"><stop style="stop-color:#fff;stop-opacity:1" id="stop3222" offset="0"/><stop style="stop-color:#fff;stop-opacity:0" id="stop3224" offset="1"/></linearGradient><linearGradient id="linearGradient3201"><stop id="stop3203" offset="0" style="stop-color:#fbaeff;stop-opacity:1"/><stop id="stop3205" offset="1" style="stop-color:#ffd7d7;stop-opacity:1"/></linearGradient><linearGradient id="linearGradient3195"><stop id="stop3197" offset="0" style="stop-color:#99c2fc;stop-opacity:1"/><stop id="stop3199" offset="1" style="stop-color:#dceafe;stop-opacity:1"/></linearGradient><linearGradient id="linearGradient6310"><stop style="stop-color:#b900c4;stop-opacity:1" id="stop6312" offset="0"/><stop style="stop-color:#ae4300;stop-opacity:1" id="stop6314" offset="1"/></linearGradient><linearGradient id="linearGradient3051"><stop style="stop-color:#0968ef;stop-opacity:1" id="stop3053" offset="0"/><stop style="stop-color:#aecffc;stop-opacity:1" id="stop3055" offset="1"/></linearGradient><linearGradient id="linearGradient3768" x1="23.5" x2="140.198" y1="64" y2="32.731" gradientTransform="translate(-4,0)" gradientUnits="userSpaceOnUse" xlink:href="#linearGradient3051"/><linearGradient id="linearGradient3772" x1="32" x2="54.052" y1="88.469" y2="6.171" gradientTransform="translate(-4,0)" gradientUnits="userSpaceOnUse" xlink:href="#linearGradient6310"/><linearGradient id="linearGradient3189" x1="66.066" x2="66.066" y1="92.046" y2="43.635" gradientTransform="translate(-4,0)" gradientUnits="userSpaceOnUse" xlink:href="#linearGradient3201"/><linearGradient id="linearGradient3193" x1="68" x2="68" y1="112" y2="80" gradientTransform="translate(-4,0)" gradientUnits="userSpaceOnUse" xlink:href="#linearGradient3195"/><linearGradient id="linearGradient3226" x1="92.705" x2="120" y1="8.803" y2="76" gradientTransform="translate(-4,0)" gradientUnits="userSpaceOnUse" xlink:href="#linearGradient3220"/><linearGradient id="linearGradient3234" x1="84" x2="110" y1="60" y2="105.033" gradientTransform="translate(-4,0)" gradientUnits="userSpaceOnUse" xlink:href="#linearGradient3228"/><linearGradient id="linearGradient6310-6"><stop style="stop-color:#b900c4;stop-opacity:1" id="stop6312-9" offset="0"/><stop style="stop-color:#ae4300;stop-opacity:1" id="stop6314-9" offset="1"/></linearGradient><linearGradient id="linearGradient3643"><stop style="stop-color:#0968ef;stop-opacity:1" id="stop3645" offset="0"/><stop style="stop-color:#aecffc;stop-opacity:1" id="stop3647" offset="1"/></linearGradient><linearGradient id="linearGradient3077-8" x1="84" x2="112" y1="56" y2="-12" gradientTransform="translate(-16,180)" gradientUnits="userSpaceOnUse" xlink:href="#linearGradient3643-6"/><linearGradient id="linearGradient3643-6"><stop style="stop-color:#0968ef;stop-opacity:1" id="stop3645-3" offset="0"/><stop style="stop-color:#aecffc;stop-opacity:1" id="stop3647-5" offset="1"/></linearGradient><linearGradient id="linearGradient3098" x1="84" x2="112" y1="56" y2="-12" gradientTransform="translate(-16,40)" gradientUnits="userSpaceOnUse" xlink:href="#linearGradient3643-6"/><linearGradient id="linearGradient3077-1" x1="84" x2="112" y1="56" y2="-12" gradientTransform="translate(-16,180)" gradientUnits="userSpaceOnUse" xlink:href="#linearGradient3643-1"/><linearGradient id="linearGradient3643-1"><stop style="stop-color:#0968ef;stop-opacity:1" id="stop3645-0" offset="0"/><stop style="stop-color:#aecffc;stop-opacity:1" id="stop3647-56" offset="1"/></linearGradient><linearGradient id="linearGradient3135" x1="84" x2="112" y1="56" y2="-12" gradientTransform="translate(-23.071068,33.636039)" gradientUnits="userSpaceOnUse" xlink:href="#linearGradient3643-1"/><linearGradient id="linearGradient3077-82" x1="84" x2="112" y1="56" y2="-12" gradientTransform="translate(-16,180)" gradientUnits="userSpaceOnUse" xlink:href="#linearGradient3643-0"/><linearGradient id="linearGradient3643-0"><stop style="stop-color:#0968ef;stop-opacity:1" id="stop3645-6" offset="0"/><stop style="stop-color:#aecffc;stop-opacity:1" id="stop3647-2" offset="1"/></linearGradient><linearGradient id="linearGradient3196" x1="84" x2="112" y1="56" y2="-12" gradientTransform="translate(-10.343146,43.535534)" gradientUnits="userSpaceOnUse" xlink:href="#linearGradient3643-0"/><linearGradient id="linearGradient3080-4" x1="151.137" x2="91.471" y1="57.515" y2="-2.151" gradientTransform="matrix(0.7071068,0.7071068,-0.7071068,0.7071068,41.79899,104.46089)" gradientUnits="userSpaceOnUse" xlink:href="#linearGradient6310-6-0"/><linearGradient id="linearGradient6310-6-0"><stop style="stop-color:#b900c4;stop-opacity:1" id="stop6312-9-6" offset="0"/><stop style="stop-color:#ae4300;stop-opacity:1" id="stop6314-9-3" offset="1"/></linearGradient><linearGradient id="linearGradient3214" x1="151.137" x2="91.471" y1="57.515" y2="-2.151" gradientTransform="matrix(0.7071068,0.7071068,-0.7071068,0.7071068,41.79899,-35.53911)" gradientUnits="userSpaceOnUse" xlink:href="#linearGradient6310-6-0"/><linearGradient id="linearGradient3080-5" x1="151.137" x2="91.471" y1="57.515" y2="-2.151" gradientTransform="matrix(0.7071068,0.7071068,-0.7071068,0.7071068,41.79899,104.46089)" gradientUnits="userSpaceOnUse" xlink:href="#linearGradient6310-6-8"/><linearGradient id="linearGradient6310-6-8"><stop style="stop-color:#b900c4;stop-opacity:1" id="stop6312-9-3" offset="0"/><stop style="stop-color:#ae4300;stop-opacity:1" id="stop6314-9-6" offset="1"/></linearGradient><linearGradient id="linearGradient3251" x1="151.137" x2="91.471" y1="57.515" y2="-2.151" gradientTransform="matrix(0.7071068,0.7071068,-0.7071068,0.7071068,41.79899,-35.53911)" gradientUnits="userSpaceOnUse" xlink:href="#linearGradient6310-6-8"/><linearGradient id="linearGradient3080-3" x1="151.137" x2="91.471" y1="57.515" y2="-2.151" gradientTransform="matrix(0.7071068,0.7071068,-0.7071068,0.7071068,41.79899,104.46089)" gradientUnits="userSpaceOnUse" xlink:href="#linearGradient6310-6-7"/><linearGradient id="linearGradient6310-6-7"><stop style="stop-color:#b900c4;stop-opacity:1" id="stop6312-9-0" offset="0"/><stop style="stop-color:#ae4300;stop-opacity:1" id="stop6314-9-4" offset="1"/></linearGradient><linearGradient id="linearGradient3312" x1="151.137" x2="91.471" y1="57.515" y2="-2.151" gradientTransform="matrix(0.7071068,0.7071068,-0.7071068,0.7071068,41.79899,-35.53911)" gradientUnits="userSpaceOnUse" xlink:href="#linearGradient6310-6-7"/><linearGradient id="linearGradient3135-7" x1="84" x2="112" y1="56" y2="-12" gradientTransform="translate(-16,180)" gradientUnits="userSpaceOnUse" xlink:href="#linearGradient3643-1-2"/><linearGradient id="linearGradient3643-1-2"><stop style="stop-color:#0968ef;stop-opacity:1" id="stop3645-0-9" offset="0"/><stop style="stop-color:#aecffc;stop-opacity:1" id="stop3647-56-1" offset="1"/></linearGradient><linearGradient id="linearGradient3312-4" x1="151.137" x2="91.471" y1="57.515" y2="-2.151" gradientTransform="matrix(0.7071068,0.7071068,-0.7071068,0.7071068,41.79899,104.46089)" gradientUnits="userSpaceOnUse" xlink:href="#linearGradient6310-6-7-0"/><linearGradient id="linearGradient6310-6-7-0"><stop style="stop-color:#b900c4;stop-opacity:1" id="stop6312-9-0-6" offset="0"/><stop style="stop-color:#ae4300;stop-opacity:1" id="stop6314-9-4-2" offset="1"/></linearGradient><linearGradient id="linearGradient3214-1" x1="151.137" x2="91.471" y1="57.515" y2="-2.151" gradientTransform="matrix(0.7071068,0.7071068,-0.7071068,0.7071068,41.79899,104.46089)" gradientUnits="userSpaceOnUse" xlink:href="#linearGradient6310-6-0-5"/><linearGradient id="linearGradient6310-6-0-5"><stop style="stop-color:#b900c4;stop-opacity:1" id="stop6312-9-6-6" offset="0"/><stop style="stop-color:#ae4300;stop-opacity:1" id="stop6314-9-3-2" offset="1"/></linearGradient><linearGradient id="linearGradient3098-3" x1="84" x2="112" y1="56" y2="-12" gradientTransform="translate(-16,40)" gradientUnits="userSpaceOnUse" xlink:href="#linearGradient3643-6-8"/><linearGradient id="linearGradient3643-6-8"><stop style="stop-color:#0968ef;stop-opacity:1" id="stop3645-3-9" offset="0"/><stop style="stop-color:#aecffc;stop-opacity:1" id="stop3647-5-7" offset="1"/></linearGradient><linearGradient id="linearGradient3196-8" x1="84" x2="112" y1="56" y2="-12" gradientTransform="translate(-16,180)" gradientUnits="userSpaceOnUse" xlink:href="#linearGradient3643-0-7"/><linearGradient id="linearGradient3643-0-7"><stop style="stop-color:#0968ef;stop-opacity:1" id="stop3645-6-0" offset="0"/><stop style="stop-color:#aecffc;stop-opacity:1" id="stop3647-2-0" offset="1"/></linearGradient><linearGradient id="linearGradient3251-3" x1="151.137" x2="91.471" y1="57.515" y2="-2.151" gradientTransform="matrix(0.7071068,0.7071068,-0.7071068,0.7071068,41.79899,104.46089)" gradientUnits="userSpaceOnUse" xlink:href="#linearGradient6310-6-8-0"/><linearGradient id="linearGradient6310-6-8-0"><stop style="stop-color:#b900c4;stop-opacity:1" id="stop6312-9-3-5" offset="0"/><stop style="stop-color:#ae4300;stop-opacity:1" id="stop6314-9-6-1" offset="1"/></linearGradient><linearGradient id="linearGradient3355" x1="84" x2="112" y1="56" y2="-12" gradientTransform="translate(-16,180)" gradientUnits="userSpaceOnUse" xlink:href="#linearGradient3643-6-8"/><linearGradient id="linearGradient3196-82" x1="84" x2="112" y1="56" y2="-12" gradientTransform="translate(-11.403806,40.353553)" gradientUnits="userSpaceOnUse" xlink:href="#linearGradient3643-0-0"/><linearGradient id="linearGradient3643-0-0"><stop style="stop-color:#0968ef;stop-opacity:1" id="stop3645-6-8" offset="0"/><stop style="stop-color:#aecffc;stop-opacity:1" id="stop3647-2-3" offset="1"/></linearGradient><linearGradient id="linearGradient3481" x1="84" x2="112" y1="56" y2="-12" gradientTransform="translate(-5.4106422,5.389827)" gradientUnits="userSpaceOnUse" xlink:href="#linearGradient3643-0-0"/><linearGradient id="linearGradient3196-0" x1="84" x2="112" y1="56" y2="-12" gradientTransform="translate(-11.403806,40.353553)" gradientUnits="userSpaceOnUse" xlink:href="#linearGradient3643-0-9"/><linearGradient id="linearGradient3643-0-9"><stop style="stop-color:#0968ef;stop-opacity:1" id="stop3645-6-01" offset="0"/><stop style="stop-color:#aecffc;stop-opacity:1" id="stop3647-2-4" offset="1"/></linearGradient><linearGradient id="linearGradient3481-6" x1="84" x2="112" y1="56" y2="-12" gradientTransform="translate(24.641396,29.785011)" gradientUnits="userSpaceOnUse" xlink:href="#linearGradient3643-0-9"/><linearGradient id="linearGradient3098-9" x1="84" x2="112" y1="56" y2="-12" gradientTransform="translate(-16,40)" gradientUnits="userSpaceOnUse" xlink:href="#linearGradient3643-6-5"/><linearGradient id="linearGradient3643-6-5"><stop style="stop-color:#0968ef;stop-opacity:1" id="stop3645-3-6" offset="0"/><stop style="stop-color:#aecffc;stop-opacity:1" id="stop3647-5-6" offset="1"/></linearGradient><linearGradient id="linearGradient3532" x1="84" x2="112" y1="56" y2="-12" gradientTransform="translate(-5.1195347,8.613438)" gradientUnits="userSpaceOnUse" xlink:href="#linearGradient3643-6-5"/><linearGradient id="linearGradient3551" x1="151.137" x2="91.471" y1="57.515" y2="-2.151" gradientTransform="matrix(0.7071068,0.7071068,-0.7071068,0.7071068,9.9791853,-46.152854)" gradientUnits="userSpaceOnUse" xlink:href="#linearGradient6310-6-8-0"/><linearGradient id="linearGradient3553" x1="151.137" x2="91.471" y1="57.515" y2="-2.151" gradientTransform="matrix(0.7071068,0.7071068,-0.7071068,0.7071068,50.284271,-41.203107)" gradientUnits="userSpaceOnUse" xlink:href="#linearGradient6310-6-7-0"/><linearGradient id="linearGradient3555" x1="151.137" x2="91.471" y1="57.515" y2="-2.151" gradientTransform="matrix(0.7071068,0.7071068,-0.7071068,0.7071068,53.819805,-1.2515738)" gradientUnits="userSpaceOnUse" xlink:href="#linearGradient6310-6-0-5"/></defs><metadata id="metadata3413"/><g id="layer1"><path id="path3452" d="m 120.00001,122 -4.14286,-2 -8.28571,-4 0,4 L 4,120 l 0,4 103.57144,0 0,4 8.28571,-4 4.14286,-2 z" style="opacity:.61386138;fill:#797979;fill-opacity:1;stroke:none"/><rect id="rect3572" width="8" height="4" x="4" y="36" rx="0" ry="0" style="opacity:1;fill:#787878;fill-opacity:.61568627;stroke:none;stroke-width:1;stroke-linecap:round;stroke-linejoin:round;stroke-miterlimit:4;stroke-dasharray:none;stroke-dashoffset:0;stroke-opacity:1"/><rect id="rect3574" width="8" height="4" x="-124" y="92" rx="0" ry="0" transform="matrix(0,-1,1,0,0,0)" style="opacity:1;fill:#787878;fill-opacity:.61568627;stroke:none;stroke-width:1;stroke-linecap:round;stroke-linejoin:round;stroke-miterlimit:4;stroke-dasharray:none;stroke-dashoffset:0;stroke-opacity:1"/><rect style="opacity:1;fill:#787878;fill-opacity:.61568627;stroke:none;stroke-width:1;stroke-linecap:round;stroke-linejoin:round;stroke-miterlimit:4;stroke-dasharray:none;stroke-dashoffset:0;stroke-opacity:1" id="rect3576" width="8" height="4" x="-124" y="72" rx="0" ry="0" transform="matrix(0,-1,1,0,0,0)"/><rect id="rect3578" width="8" height="4" x="-124" y="52" rx="0" ry="0" transform="matrix(0,-1,1,0,0,0)" style="opacity:1;fill:#787878;fill-opacity:.61568627;stroke:none;stroke-width:1;stroke-linecap:round;stroke-linejoin:round;stroke-miterlimit:4;stroke-dasharray:none;stroke-dashoffset:0;stroke-opacity:1"/><rect style="opacity:1;fill:#787878;fill-opacity:.61568627;stroke:none;stroke-width:1;stroke-linecap:round;stroke-linejoin:round;stroke-miterlimit:4;stroke-dasharray:none;stroke-dashoffset:0;stroke-opacity:1" id="rect3580" width="8" height="4" x="-124" y="32" rx="0" ry="0" transform="matrix(0,-1,1,0,0,0)"/><path style="opacity:.61386138;fill:#797979;fill-opacity:1;stroke:none" id="path3447" d="m 6,8 -2,4.296296 -4,8.592593 4,0 L 4,124 l 4,0 0,-103.111111 4,0 L 8,12.296296 6,8 z"/><rect style="opacity:1;fill:#787878;fill-opacity:.61568627;stroke:none;stroke-width:1;stroke-linecap:round;stroke-linejoin:round;stroke-miterlimit:4;stroke-dasharray:none;stroke-dashoffset:0;stroke-opacity:1" id="rect3564" width="8" height="4" x="4" y="96" rx="0" ry="0"/><rect id="rect3566" width="8" height="4" x="4" y="76" rx="0" ry="0" style="opacity:1;fill:#787878;fill-opacity:.61568627;stroke:none;stroke-width:1;stroke-linecap:round;stroke-linejoin:round;stroke-miterlimit:4;stroke-dasharray:none;stroke-dashoffset:0;stroke-opacity:1"/><rect style="opacity:1;fill:#787878;fill-opacity:.61568627;stroke:none;stroke-width:1;stroke-linecap:round;stroke-linejoin:round;stroke-miterlimit:4;stroke-dasharray:none;stroke-dashoffset:0;stroke-opacity:1" id="rect3568" width="8" height="4" x="4" y="56" rx="0" ry="0"/><path style="fill:none;stroke:url(#linearGradient3768);stroke-width:4;stroke-linecap:round;stroke-linejoin:round;stroke-miterlimit:4;stroke-opacity:1;stroke-dasharray:none" id="path2982" d="M 21.944544,105.94454 C 99.965614,40.894088 21.915269,106.27358 100,40.665476"/><path style="fill:url(#linearGradient3098);fill-opacity:1;stroke:none" id="path3491-2" d="M 20 97 L 20 104 L 13 104 L 13 108 L 20 108 L 20 115 L 24 115 L 24 108 L 31 108 L 31 104 L 24 104 L 24 97 L 20 97 z M 22 104 C 24 104 24 104 24 106 C 24 108 24 108 22 108 C 20 108 20 108 20 106 C 20 104 20 104 22 104 z"/><path style="fill:url(#linearGradient3135);fill-opacity:1;stroke:none" id="path3491-9" d="m 88.928932,22.636039 0,7 -7,0 0,4 7,0 0,7 4,0 0,-7 7,0 0,-4 -7,0 0,-7 -4,0 z m 2,7 c 2,0 2,0 2,2 0,2 0,2 -2,2 -2,0 -2,0 -2,-2 0,-2 0,-2 2,-2 z"/><path style="fill:url(#linearGradient3555);fill-opacity:1;stroke:none" id="rect3454-2-9" d="m 29.083315,64.506286 -2.84375,2.84375 4.9375,4.9375 -4.9375,4.9375 2.84375,2.84375 4.9375,-4.9375 4.9375,4.9375 2.84375,-2.84375 -4.9375,-4.9375 4.9375,-4.9375 -2.84375,-2.84375 -4.9375,4.9375 -4.9375,-4.9375 z m 4.9375,5.78125 c 0.511238,0 1.014512,0.20201 1.40625,0.59375 0.783475,0.78348 0.783474,2.02902 0,2.8125 -0.783474,0.78347 -2.029025,0.78347 -2.8125,0 -0.783475,-0.78348 -0.783474,-2.02903 0,-2.8125 0.391737,-0.39174 0.895012,-0.59375 1.40625,-0.59375 z"/><path style="fill:url(#linearGradient3551);fill-opacity:1;stroke:none" id="rect3454-7-2" d="m 61.242695,79.605006 -2.84375,2.84375 4.9375,4.9375 -4.9375,4.9375 2.84375,2.84375 4.9375,-4.9375 4.9375,4.9375 2.84375,-2.84375 -4.9375,-4.9375 4.9375,-4.9375 -2.84375,-2.84375 -4.9375,4.9375 -4.9375,-4.9375 z m 4.9375,5.78125 c 0.51124,0 1.01451,0.20201 1.40625,0.59375 0.78348,0.78348 0.78348,2.02902 0,2.8125 -0.78347,0.78347 -2.02903,0.78347 -2.8125,0 -0.783483,-0.78348 -0.78348,-2.02903 0,-2.8125 0.39173,-0.39174 0.89501,-0.59375 1.40625,-0.59375 z"/><path style="fill:url(#linearGradient3553);fill-opacity:1;stroke:none" id="rect3454-77-5" d="m 61.547781,40.554753 -2.84375,2.84375 4.9375,4.9375 -4.9375,4.9375 2.84375,2.84375 4.9375,-4.9375 4.9375,4.9375 2.84375,-2.84375 -4.9375,-4.9375 4.9375,-4.9375 -2.84375,-2.84375 -4.9375,4.9375 -4.9375,-4.9375 z m 4.9375,5.78125 c 0.511238,0 1.014513,0.20201 1.40625,0.59375 0.783473,0.78348 0.783474,2.02902 0,2.8125 -0.783476,0.78347 -2.029025,0.78347 -2.8125,0 -0.783473,-0.78348 -0.783474,-2.02903 0,-2.8125 0.391738,-0.39174 0.895012,-0.59375 1.40625,-0.59375 z"/><path style="fill:url(#linearGradient3481-6);fill-opacity:1;stroke:none" id="path3491-5-5" d="m 96.641396,62.785011 0,7 -7,0 0,4 7,0 0,7 4.000004,0 0,-7 7,0 0,-4 -7,0 0,-7 -4.000004,0 z m 2,7 c 2.000004,0 2.000004,0 2.000004,2 0,2 0,2 -2.000004,2 -2,0 -2,0 -2,-2 0,-2 0,-2 2,-2 z"/></g></svg>