<svg xmlns="http://www.w3.org/2000/svg" xmlns:svg="http://www.w3.org/2000/svg" xmlns:xlink="http://www.w3.org/1999/xlink" id="svg3408" width="128" height="128" version="1.0"><defs id="defs3410"><linearGradient id="linearGradient3228"><stop style="stop-color:#fff;stop-opacity:1" id="stop3230" offset="0"/><stop style="stop-color:#fff;stop-opacity:0" id="stop3232" offset="1"/></linearGradient><linearGradient id="linearGradient3220"><stop style="stop-color:#fff;stop-opacity:1" id="stop3222" offset="0"/><stop style="stop-color:#fff;stop-opacity:0" id="stop3224" offset="1"/></linearGradient><linearGradient id="linearGradient3201"><stop id="stop3203" offset="0" style="stop-color:#fbaeff;stop-opacity:1"/><stop id="stop3205" offset="1" style="stop-color:#ffd7d7;stop-opacity:1"/></linearGradient><linearGradient id="linearGradient3195"><stop id="stop3197" offset="0" style="stop-color:#99c2fc;stop-opacity:1"/><stop id="stop3199" offset="1" style="stop-color:#dceafe;stop-opacity:1"/></linearGradient><linearGradient id="linearGradient6310"><stop style="stop-color:#b900c4;stop-opacity:1" id="stop6312" offset="0"/><stop style="stop-color:#ae4300;stop-opacity:1" id="stop6314" offset="1"/></linearGradient><linearGradient id="linearGradient3051"><stop style="stop-color:#0968ef;stop-opacity:1" id="stop3053" offset="0"/><stop style="stop-color:#aecffc;stop-opacity:1" id="stop3055" offset="1"/></linearGradient><linearGradient id="linearGradient3768" x1="23.5" x2="140.198" y1="64" y2="32.731" gradientTransform="translate(-4,0)" gradientUnits="userSpaceOnUse" xlink:href="#linearGradient3051"/><linearGradient id="linearGradient3772" x1="32" x2="54.052" y1="88.469" y2="6.171" gradientTransform="translate(-4,0)" gradientUnits="userSpaceOnUse" xlink:href="#linearGradient6310"/><linearGradient id="linearGradient3189" x1="66.066" x2="66.066" y1="92.046" y2="43.635" gradientTransform="translate(-4,0)" gradientUnits="userSpaceOnUse" xlink:href="#linearGradient3201"/><linearGradient id="linearGradient3193" x1="68" x2="68" y1="112" y2="80" gradientTransform="translate(-4,0)" gradientUnits="userSpaceOnUse" xlink:href="#linearGradient3195"/><linearGradient id="linearGradient3226" x1="92.705" x2="120" y1="8.803" y2="76" gradientTransform="translate(-4,0)" gradientUnits="userSpaceOnUse" xlink:href="#linearGradient3220"/><linearGradient id="linearGradient3234" x1="84" x2="110" y1="60" y2="105.033" gradientTransform="translate(-4,0)" gradientUnits="userSpaceOnUse" xlink:href="#linearGradient3228"/></defs><metadata id="metadata3413"/><g id="layer1"><path id="path3452" d="m 120,120 c -16,-8 0,0 -16,-8 l 0,4 -100,0 0,8 100,0 0,4 c 16,-8 0,0 16,-8 z" style="opacity:.61386138;fill:#797979;fill-opacity:1;stroke:none"/><rect id="rect3574" width="12" height="8" x="-116" y="84" rx="0" ry="0" transform="matrix(0,-1,1,0,0,0)" style="fill:#787878;fill-opacity:.61568627;stroke:none"/><rect style="fill:#787878;fill-opacity:.61568627;stroke:none" id="rect3576" width="12" height="8" x="-116" y="64" rx="0" ry="0" transform="matrix(0,-1,1,0,0,0)"/><rect id="rect3578" width="12" height="8" x="-116" y="44" rx="0" ry="0" transform="matrix(0,-1,1,0,0,0)" style="fill:#787878;fill-opacity:.61568627;stroke:none"/><rect style="fill:#787878;fill-opacity:.61568627;stroke:none" id="rect3580" width="12" height="8" x="-116" y="24" rx="0" ry="0" transform="matrix(0,-1,1,0,0,0)"/><path style="opacity:.61386138;fill:#797979;fill-opacity:1;stroke:none" id="path3447" d="m 6,8 -2,4.296296 -4,8.592593 4,0 L 4,124 l 4,0 0,-103.111111 4,0 L 8,12.296296 6,8 z"/></g></svg>