<svg xmlns="http://www.w3.org/2000/svg" width="48" height="48"><defs><linearGradient id="a" x1="434.57" x2="384.57" y1="543.8" y2="503.8" gradientUnits="userSpaceOnUse"><stop stop-color="#343b40"/><stop offset="1" stop-color="#555e63"/></linearGradient><linearGradient id="b" x2="0" y1="44" y2="4" gradientTransform="translate(384.57 499.8)" gradientUnits="userSpaceOnUse"><stop stop-color="#bd8d48"/><stop offset="1" stop-color="#e8b971"/></linearGradient><linearGradient id="c" x1="17" x2="40" y1="17" y2="40" gradientUnits="userSpaceOnUse"><stop stop-color="#383e51"/><stop offset="1" stop-color="#655c6f" stop-opacity="0"/></linearGradient></defs><g transform="translate(-384.57-499.8)"><g stroke-opacity=".55" stroke-width="2.8"><rect width="48" height="40" x="384.57" y="503.8" fill="url(#a)"/><path fill="url(#b)" d="m384.57 503.8v40h48v-40h-46zm2 2h44v36h-44z"/></g><path fill="url(#c)" fill-rule="evenodd" d="m6 25v16h-1v3h43v-16l-3-3h-3.805c-9.208 2.61-9.571 14.545-14.684 14.508-5.11-.038-7.87-11.905-17.594-14.508z" opacity=".2" transform="translate(384.57 499.8)"/><g fill="#aa7f41"><rect width="48" height="1" x="384.57" y="542.8" stroke-opacity=".55" stroke-width="2.8"/><path fill-opacity=".498" d="m2 6v36h44v-36h-43zm1 1h42v34h-42z" color="#000" color-interpolation="sRGB" color-interpolation-filters="linearRGB" color-rendering="auto" image-rendering="auto" shape-rendering="auto" text-rendering="auto" transform="translate(384.57 499.8)"/></g><g fill="none" stroke-width=".984"><path stroke="#787e82" d="m389.57 524.29c13.01 0 15.772 14.973 21.511 15.02 5.739.042 5.484-15.02 18.489-15.02"/><path stroke="#5090c3" d="m389.57 523.31c13.01 0 15.772-10.274 21.511-10.316 5.739-.042 5.484 10.316 18.489 10.316"/></g><rect width="1" height="34" x="389.57" y="506.8" fill="#d6d6d6" color="#000" color-interpolation="sRGB" color-interpolation-filters="linearRGB" color-rendering="auto" image-rendering="auto" shape-rendering="auto" text-rendering="auto"/><path fill="none" stroke="#d6d6d6" stroke-width=".984" d="m389.57 523.31c13.01 0 15.772-14.973 21.511-15.02 5.739-.042 5.484 15.02 18.489 15.02"/><g color="#000" color-interpolation="sRGB" color-interpolation-filters="linearRGB" color-rendering="auto" image-rendering="auto" shape-rendering="auto" text-rendering="auto"><rect width="4" height="1" x="419.57" y="539.8" fill="#007ad9"/><rect width="4" height="1" x="424.57" y="539.8" fill="#fff"/><g fill="#d6d6d6"><rect width="39" height="1" x="390.57" y="523.8"/><rect width="1" height="3" x="396.57" y="522.8"/><rect width="1" height="3" x="410.57" y="522.8"/><rect width="1" height="3" x="424.57" y="522.8"/></g></g></g></svg>